<?xml version="1.0" encoding="UTF-8"?>
<svg id="Layer_1" xmlns="http://www.w3.org/2000/svg" version="1.1" viewBox="0 0 189.1 133">
  <!-- Generator: Adobe Illustrator 29.8.2, SVG Export Plug-In . SVG Version: 2.1.1 Build 3)  -->
  <defs>
    <style>
      .st0 {
        fill: #fff;
      }
    </style>
  </defs>
  <path class="st0" d="M46.6,43.4V14.5h10.1c2.6,0,4.7.1,6.3.4,1.6.3,2.9.7,3.8,1.3.9.6,1.6,1.5,2,2.6.4,1.1.7,2.5.8,4.1.1,1.6.2,3.6.2,6s0,4.3-.2,6c-.1,1.6-.4,3-.8,4.1-.4,1.1-1.1,2-2,2.6s-2.2,1.1-3.8,1.3c-1.6.3-3.7.4-6.3.4h-10.1ZM53.9,37.8h2.6c1.1,0,2.1,0,2.8-.1.7,0,1.3-.2,1.7-.5.4-.3.7-.7.9-1.3.2-.6.3-1.5.3-2.6,0-1.1,0-2.5,0-4.3s0-3.2,0-4.3c0-1.1-.2-2-.4-2.6-.2-.6-.5-1.1-.9-1.4-.4-.3-1-.4-1.7-.5-.7,0-1.7,0-2.8,0h-2.6v17.6Z"/>
  <path class="st0" d="M81.2,43.7c-1.4,0-2.6-.2-3.4-.5-.9-.4-1.5-.9-2-1.6-.4-.7-.7-1.6-.9-2.6-.1-1-.2-2.2-.2-3.6v-13.4h6.7v11.3c0,1.1,0,2,.1,2.7s.2,1.1.4,1.4c.2.3.5.5.9.6.4,0,.9.1,1.6.1s1.3,0,1.7-.2c.4-.2.7-.4.9-.8.2-.4.3-.9.4-1.5,0-.7.1-1.5.1-2.5v-11.2h6.8v21.4h-6.4l-.2-2.6h-.4c-.4.7-.9,1.3-1.5,1.7-.6.4-1.3.7-2.1.9-.8.2-1.6.3-2.6.3Z"/>
  <path class="st0" d="M99.5,43.4V12.2h6.7v12.2h.4c.4-.7.9-1.3,1.5-1.7.6-.4,1.3-.7,2-.9.8-.2,1.6-.3,2.5-.3,1.4,0,2.6.2,3.4.5.9.4,1.5.9,1.9,1.6.4.7.7,1.6.9,2.6.2,1,.2,2.2.2,3.6v13.4h-6.8v-11.3c0-1.1,0-2,0-2.7,0-.7-.2-1.1-.4-1.4-.2-.3-.5-.5-.9-.6-.4,0-.9-.1-1.6-.1s-1.3,0-1.7.2c-.4.2-.8.4-1,.8-.2.4-.3.9-.4,1.5,0,.7-.1,1.5-.1,2.5v11.2h-6.7Z"/>
  <path class="st0" d="M129.5,43.7c-1.3,0-2.5-.2-3.4-.6s-1.6-1.1-2.1-2.1c-.5-1-.7-2.2-.7-3.7s.2-2.9.6-3.9c.4-1,1.1-1.7,2-2.1,1-.4,2.4-.6,4.2-.6s.6,0,1.1,0c.5,0,1,0,1.6,0,.6,0,1.2,0,1.8,0,.6,0,1.1,0,1.6,0v-.8c0-.8,0-1.4-.2-1.9-.1-.4-.4-.8-.7-1-.4-.2-.9-.3-1.6-.4-.7,0-1.6,0-2.8,0s-1.3,0-2.1,0c-.8,0-1.5,0-2.3.1-.7,0-1.4,0-1.9.1v-4.7c1.1-.2,2.4-.4,3.9-.5,1.4-.1,3-.2,4.5-.2s3.3.1,4.5.3c1.2.2,2.1.6,2.9,1,.7.5,1.3,1,1.6,1.7.3.7.6,1.5.7,2.5.1,1,.2,2,.2,3.2v12.9h-6.5l-.2-2.5h-.3c-.5.8-1.1,1.5-1.8,1.9-.7.4-1.4.7-2.2.8-.8.1-1.6.2-2.3.2ZM132.7,38.9c.5,0,.9,0,1.3-.1.4,0,.7-.2,1-.4.3-.2.5-.4.6-.7.1-.3.3-.7.3-1.1,0-.4.1-1,.1-1.6v-.8h-3.9c-.7,0-1.2,0-1.6.1-.4,0-.6.3-.7.7-.1.4-.2.9-.2,1.6s0,1.1.2,1.4c.1.3.4.6.9.7.4.1,1.1.2,1.9.2Z"/>
  <path class="st0" d="M3,83.4v-28.8h7.3v23h11.2v5.9H3Z"/>
  <path class="st0" d="M35.1,83.7c-2,0-3.7-.1-5-.4-1.3-.3-2.4-.6-3.1-1.2-.8-.5-1.3-1.3-1.7-2.1s-.6-1.9-.7-3.1c0-1.2-.1-2.6-.1-4.2s0-3.6.3-5c.2-1.4.6-2.5,1.2-3.4.6-.9,1.6-1.6,3-2,1.4-.4,3.2-.6,5.5-.6s3.4.1,4.6.4c1.2.3,2.1.7,2.8,1.2.7.5,1.2,1.3,1.5,2.1.3.9.5,1.9.6,3.1,0,1.2.1,2.6.1,4.2v1.6h-12.9c0,1,0,1.7.1,2.3,0,.6.3,1,.7,1.3.4.3.9.5,1.7.6.8,0,1.8.1,3.1.1s1.2,0,1.9,0c.7,0,1.5,0,2.3-.1.8,0,1.5-.1,2.2-.2v4.7c-.6.1-1.4.3-2.2.4-.9.1-1.8.2-2.8.3-1,0-2,0-2.9,0ZM37.6,71.6v-.7c0-1,0-1.8-.1-2.4,0-.6-.3-1-.5-1.3-.2-.3-.6-.5-1-.6-.4,0-1-.1-1.6-.1s-1.3,0-1.7.1c-.4,0-.8.3-1,.6-.2.3-.4.8-.5,1.3,0,.6-.1,1.4-.1,2.3h7.3l-.7.7Z"/>
  <path class="st0" d="M50.6,83.4v-16.3h-3.9v-5.1h3.9v-6.2h6.8v6.2h4.7v5.1h-4.7v16.3h-6.8Z"/>
  <path class="st0" d="M74.7,83.7c-1.9,0-3.5-.1-4.7-.3-1.3-.2-2.3-.6-3-1.1-.7-.5-1.3-1.2-1.6-2-.3-.8-.6-1.9-.6-3.1,0-1.3-.1-2.8-.1-4.5s0-3.2.1-4.5c0-1.2.3-2.3.6-3.1.3-.8.9-1.5,1.6-2,.7-.5,1.7-.9,3-1.1,1.3-.2,2.8-.3,4.7-.3s3.5.1,4.8.3c1.3.2,2.2.6,3,1.1.7.5,1.3,1.2,1.6,2,.3.8.6,1.9.7,3.1,0,1.2.1,2.7.1,4.5s0,3.2-.1,4.5c0,1.3-.3,2.3-.7,3.1-.3.8-.9,1.5-1.6,2-.7.5-1.7.9-3,1.1s-2.9.3-4.8.3ZM74.7,78.6c.8,0,1.5,0,2-.2.5-.1.8-.4,1-.8.2-.4.3-1,.4-1.8s0-1.9,0-3.2,0-2.4,0-3.2c0-.8-.2-1.4-.4-1.8-.2-.4-.5-.6-1-.8-.5-.1-1.1-.2-2-.2s-1.5,0-1.9.2c-.5.1-.8.4-1,.8-.2.4-.3,1-.4,1.8,0,.8,0,1.8,0,3.2s0,2.4,0,3.2c0,.8.2,1.4.4,1.8.2.4.5.6,1,.8.5.1,1.1.2,1.9.2Z"/>
  <path class="st0" d="M89.3,83.4v-31.2h6.7v12.2h.4c.4-.7.9-1.3,1.5-1.7.6-.4,1.3-.7,2-.9.8-.2,1.6-.3,2.5-.3,1.4,0,2.6.2,3.4.5.9.4,1.5.9,1.9,1.6.4.7.7,1.6.9,2.6.2,1,.2,2.2.2,3.6v13.4h-6.8v-11.3c0-1.1,0-2,0-2.7,0-.7-.2-1.1-.4-1.4-.2-.3-.5-.5-.9-.6-.4,0-.9-.1-1.6-.1s-1.3,0-1.7.2c-.4.2-.8.4-1,.8-.2.4-.3.9-.4,1.5,0,.7-.1,1.5-.1,2.5v11.2h-6.7Z"/>
  <path class="st0" d="M114.1,83.4v-21.4h6.4l.2,3.6h.4c.4-1,.9-1.8,1.5-2.4.6-.6,1.3-1,2.2-1.2.9-.2,1.9-.3,3-.3v6.2c-1.8,0-3.1.2-4.2.7s-1.7,1.2-2.1,2.3c-.4,1.1-.6,2.6-.6,4.5v8.1h-6.7Z"/>
  <path class="st0" d="M136.1,83.7c-1.3,0-2.5-.2-3.4-.6-.9-.4-1.6-1.1-2.1-2.1-.5-1-.7-2.2-.7-3.7s.2-2.9.6-3.9c.4-1,1.1-1.7,2-2.1,1-.4,2.4-.6,4.2-.6s.6,0,1.1,0c.5,0,1,0,1.6,0,.6,0,1.2,0,1.8,0,.6,0,1.1,0,1.6,0v-.8c0-.8,0-1.4-.2-1.9-.1-.4-.4-.8-.7-1-.4-.2-.9-.3-1.6-.4-.7,0-1.6,0-2.8,0s-1.3,0-2.1,0c-.8,0-1.5,0-2.3.1-.7,0-1.4,0-1.9.1v-4.7c1.1-.2,2.4-.4,3.9-.5,1.4-.1,3-.2,4.5-.2s3.3.1,4.5.3c1.2.2,2.1.6,2.9,1,.7.5,1.3,1,1.6,1.7.3.7.6,1.5.7,2.5.1,1,.2,2,.2,3.2v12.9h-6.5l-.2-2.5h-.3c-.5.8-1.1,1.5-1.8,1.9-.7.4-1.4.7-2.2.8-.8.1-1.6.2-2.3.2ZM139.3,78.9c.5,0,.9,0,1.3-.1.4,0,.7-.2,1-.4.3-.2.5-.4.6-.7.1-.3.3-.7.3-1.1,0-.4.1-1,.1-1.6v-.8h-3.9c-.7,0-1.2,0-1.6.1-.4,0-.6.3-.7.7-.1.4-.2.9-.2,1.6s0,1.1.2,1.4c.1.3.4.6.9.7.4.1,1.1.2,1.9.2Z"/>
  <path class="st0" d="M160.9,83.7c-1.2,0-2.3-.2-3.2-.5-.9-.3-1.6-.9-2.2-1.7-.6-.8-1-1.9-1.2-3.4s-.4-3.2-.4-5.4.1-3.9.4-5.3c.3-1.4.7-2.6,1.2-3.4.6-.8,1.3-1.4,2.2-1.8.9-.4,2-.5,3.2-.5s1.6,0,2.4.2c.7.1,1.4.4,2,.8.6.4,1.1.9,1.6,1.6h.3v-12h6.8v31.2h-6.4l-.2-2.6h-.3c-.4.8-1,1.4-1.6,1.8-.7.4-1.4.7-2.1.8-.8.2-1.6.2-2.4.2ZM163.9,78.2c.9,0,1.5-.1,1.9-.3.4-.2.7-.6.9-1.2.2-.5.3-1.1.3-1.7s0-1.4,0-2.3,0-1.6,0-2.3c0-.6-.1-1.2-.3-1.6-.2-.6-.5-1-.9-1.3-.4-.2-1.1-.3-2-.3s-1.4,0-1.8.2c-.4.1-.8.3-1,.7-.2.3-.3.9-.4,1.6,0,.7,0,1.7,0,3s0,2.3,0,3,.2,1.3.4,1.6c.2.3.5.6,1,.7s1,.1,1.8.1Z"/>
  <path class="st0" d="M178.9,89.6v-2.7c.8,0,1.5,0,1.9-.2.4-.2.7-.4.8-.8.2-.4.2-1,.2-1.7v-.7h-2.6v-6.1h7.2v4.5c0,1.5,0,2.8-.3,3.8-.2,1-.5,1.8-1,2.4-.5.6-1.3,1-2.3,1.2-1,.2-2.3.3-4,.3Z"/>
  <path class="st0" d="M55.5,123.7c-.9,0-1.9,0-2.9,0-1,0-2.1-.1-3.1-.2-1,0-1.9-.2-2.7-.3v-4.7c.4,0,1,0,1.5.1.6,0,1.2,0,1.8.1.6,0,1.2,0,1.8,0,.6,0,1.1,0,1.6,0,1.3,0,2.3,0,2.8-.1.6,0,.9-.3,1.1-.5.2-.3.2-.6.2-1.1s0-.8-.1-1c0-.2-.3-.3-.6-.4s-.8-.2-1.5-.3l-5-.6c-1.2-.2-2.1-.5-2.7-1.1-.6-.5-1-1.3-1.2-2.2-.2-.9-.3-2-.3-3.3s.2-2.6.7-3.5c.4-.9,1.1-1.5,1.9-1.9.8-.4,1.7-.7,2.9-.9,1.1-.1,2.3-.2,3.5-.2s1.8,0,2.8,0c1,0,1.9.1,2.7.2.9,0,1.6.2,2.1.3v4.7c-.7,0-1.4-.1-2.2-.2-.8,0-1.5,0-2.2-.1-.7,0-1.3,0-1.8,0-1.1,0-2,0-2.6,0-.6,0-1,.2-1.2.4s-.3.6-.3,1.1,0,.7.1.9c0,.2.2.4.5.4.3,0,.7.2,1.3.3l5,.6c.9.1,1.8.3,2.4.7.7.3,1.2.9,1.5,1.8.3.9.5,2.2.5,3.9s-.2,2.8-.6,3.7c-.4.9-1,1.6-1.7,2.1-.8.5-1.6.8-2.7.9-1,.1-2.2.2-3.4.2Z"/>
  <path class="st0" d="M68.3,123.4v-6.1h7.2v6.1h-7.2Z"/>
  <path class="st0" d="M80.7,123.4v-21.4h6.4l.2,3.6h.4c.4-1,.9-1.8,1.5-2.4.6-.6,1.3-1,2.2-1.2.9-.2,1.9-.3,3-.3v6.2c-1.8,0-3.1.2-4.2.7s-1.7,1.2-2.1,2.3-.6,2.6-.6,4.5v8.1h-6.7Z"/>
  <path class="st0" d="M98,123.4v-6.1h7.2v6.1h-7.2Z"/>
  <path class="st0" d="M119.9,123.7c-1.9,0-3.5-.1-4.7-.3-1.3-.2-2.3-.6-3-1.1-.7-.5-1.3-1.2-1.6-2-.3-.8-.6-1.9-.6-3.1,0-1.3-.1-2.8-.1-4.5s0-3.2.1-4.5c0-1.2.3-2.3.6-3.1.3-.8.9-1.5,1.6-2s1.7-.9,3-1.1c1.3-.2,2.8-.3,4.7-.3s3.5.1,4.8.3c1.3.2,2.2.6,3,1.1.7.5,1.3,1.2,1.6,2,.3.8.6,1.9.7,3.1,0,1.2.1,2.7.1,4.5s0,3.2-.1,4.5c0,1.3-.3,2.3-.7,3.1-.3.8-.9,1.5-1.6,2-.7.5-1.7.9-3,1.1s-2.9.3-4.8.3ZM119.9,118.6c.8,0,1.5,0,2-.2.5-.1.8-.4,1-.8.2-.4.3-1,.4-1.8,0-.8,0-1.9,0-3.2s0-2.4,0-3.2c0-.8-.2-1.4-.4-1.8-.2-.4-.5-.6-1-.8-.5-.1-1.1-.2-2-.2s-1.5,0-1.9.2c-.5.1-.8.4-1,.8-.2.4-.3,1-.4,1.8,0,.8,0,1.8,0,3.2s0,2.4,0,3.2c0,.8.2,1.4.4,1.8.2.4.5.6,1,.8.5.1,1.1.2,1.9.2Z"/>
  <path class="st0" d="M134.6,123.4v-6.1h7.2v6.1h-7.2Z"/>
</svg>