<?xml version="1.0" encoding="UTF-8"?>
<svg id="Vrstva_1" xmlns="http://www.w3.org/2000/svg" version="1.1" viewBox="0 0 278.4 129.6">
  <!-- Generator: Adobe Illustrator 29.8.2, SVG Export Plug-In . SVG Version: 2.1.1 Build 3)  -->
  <defs>
    <style>
      .st0 {
        fill: #fff;
      }
    </style>
  </defs>
  <path class="st0" d="M82.9,0c-11.4,0-22.1,2.9-31.4,8.1,1.8-.2,3.6-.3,5.4-.3,31.5,0,57,25.5,57,57s-25.5,57-57,57-3.7,0-5.4-.3c9.3,5.2,20,8.1,31.4,8.1,35.8,0,64.8-29,64.8-64.8S118.7,0,82.9,0"/>
  <path class="st0" d="M18.1,64.8c0-24.4,13.5-45.7,33.4-56.7C22.6,10.8,0,35.2,0,64.8s22.6,54,51.5,56.7c-19.9-11.1-33.4-32.3-33.4-56.7"/>
  <rect class="st0" x="170.8" y="35.9" width="11.7" height="57.9"/>
  <rect class="st0" x="266.8" y="35.9" width="11.7" height="57.9"/>
  <path class="st0" d="M246.4,35.9c-1.7,0-3.1,1-3.9,2.4l-17.6,33-17.4-33c-.8-1.4-2.2-2.4-4-2.5h-9.4v57.9h10.7v-40.7l13.8,25.8c.8,1.4,2.3,2.4,4,2.5h4.2c1.7,0,3.2-1,4-2.4l13.8-25.8v40.7h10.7v-57.9"/>
</svg>