<?xml version="1.0" encoding="UTF-8"?>
<svg id="Layer_1" xmlns="http://www.w3.org/2000/svg" version="1.1" viewBox="0 0 1080 214.6">
  <!-- Generator: Adobe Illustrator 29.8.2, SVG Export Plug-In . SVG Version: 2.1.1 Build 3)  -->
  <defs>
    <style>
      .st0 {
        fill: #fff;
      }
    </style>
  </defs>
  <g id="SHnXRn">
    <g>
      <path class="st0" d="M776.5,181.2c-1.4-7.3,2.5-5.1,7.8-5.2l-9.3-26.2c-6.7,1.4-25.1-2.6-28.6,2.6s-6.9,17.5-6.4,19.5c1.6,5.9,13,.8,10.4,9.2h-28.7s9.1-7.8,9.1-7.8l33.8-91.2c2.8-4.1,31.4-3.9,34.1,0l32.7,93.6c7.6,2.1,12.7,2.4,20.3,0,.6-3,2.6-5.8,2.9-8.8,1.9-16.6,1.5-50.7.2-67.8-.2-2.7-1.6-9.7-3.1-11.2-3-2.9-12.4-.4-10-8.2h56c12.6,16.1,23.3,35.4,37.8,49.5v-41.7l-13-2.6c5-9.8,21.5-3.5,31.3-5.2,2.1,8.4-7.3,3.2-10.4,9.1v92.4c-7.6-1.1-19.5,2.1-26.1-1.2s-11.2-13.2-14.1-17.1c-14.3-18.7-26.3-41-43.1-57.1v63.8c0,.4,3.4,3.7,2.7,6.4h10.3c0,.1,0,5.3,0,5.3h-96.4ZM773.9,142.1l-13-31.2-10.4,31.2h23.5Z"/>
      <path class="st0" d="M315.2,79.6v5.2s-10.4,0-10.4,0v44.3l36.5-37.8c-1.9-1.3-3.4-4.4-5.1-5.3-5.2-2.7-12.1,2.1-10.5-6.4h43c.6,0,4.8,4.5,3.9,5.2-10-4-34,14.5-34,22.1s4,9.5,5.7,12.6c8,15,17.6,29.5,26.1,44.2s4.6,11.4,5.1,11.8c1.8,1.4,9.4-.3,10,5.6h-67.8l7.8-9.1-20.8-32.6v36.5h7.8s0,5.2,0,5.2h-65.2c-1.8-8.2,5-4.7,10.4-5.2v-91.2c-5.4-.5-12.2,3-10.4-5.2h67.8Z"/>
      <path class="st0" d="M436.9,77.6c26.1-3.7,54.4,12.6,62.7,37.8s-.6,44.2-18.9,58.1c-13.3,10.1-38.2,9.4-54.9,7.9-6.9-.6-13.9-5-19.3-9.4-16.3-13.1-20.9-31.5-18.3-51.9s28.2-39.5,48.7-42.5ZM450.5,178.4c.9-4,2.5-7.1,2.9-11.4,1.4-16.9,2.1-57-.1-73s-3.9-12.5-8.8-11.6-8.7,7.8-9.3,14.2c-1.9,17.8-1.7,52.3-.2,70.3s2,7.4,2.9,11.4h12.7Z"/>
      <path class="st0" d="M614.9,79.6v39.1c-9.4.9-6.7-8-9-13.1-4.6-10.5-11.5-17-22.3-20.7v91.1h13s0,5.2,0,5.2h-73c1.6-6,7.9-5.6,13-5.2v-91.1c-14.1,5.7-22.7,18.6-23.5,33.9h-7.8c.9-6.4-2.8-39.1,3.9-39.1h105.6Z"/>
      <path class="st0" d="M683.9,79.6c1,.3,4.7,4.6,3.9,5.2h-13v91.2c23.5,4.7,33.9-13.2,36.5-33.9h7.8v39.1h-101.6l10.5-6.6v-89.7c-5.5-.5-12.3,3-10.5-5.2h66.5Z"/>
      <path class="st0" d="M1008.4,181.2l10.4-5.2-7.9-26h-31c-1.8,8.3-6.8,15.9-5.5,24.6.4,2.5,10.2.6,10.5,6.6h-28.7c-2.1-8.5,5.1-3.5,7.5-5.5l34.5-91.9c3.4-6.6,28.5-5.7,32.4-1.6l33.7,91.3c3.3,4.4,11.5-.7,9.3,7.7h-65.2ZM1005.8,142.1c.8-.8-5.3-17.7-6.5-20.8s-3.2-10.4-6.5-10.4c-1.2,11-5.5,21.5-10.4,31.2h23.5Z"/>
    </g>
  </g>
  <g id="oJoAFo">
    <path class="st0" d="M177.7,64.2v-6s10,0,10,0v5.9c22.4,2.3,31.9,27.3,32.9,46.9,3.3.2,2-4.2,6-3v11s-6-2-6-2v7s5.8-.9,5.8-.9c.4,5,4.7,4.7,7.1,7.3,7.7,8.3,7.2,31.1-5.8,34.6,0,7.6-7.4,6-8.7-.2-11.2,0-22.3-.5-33.2,2.1v9.4c-.1,0,2.7.7,2.7.7l1.2,3.8h-24.9v-4s4,0,4,0v-10h-74.7v9.4c0,0,2.9.6,2.9.6v3.9c.1,0-23.8,0-23.8,0v-4s4,0,4,0v-10s-6,0-6,0v12.9s-36.8,0-36.8,0v-8h26.9c1.1-7.1-2.3-5-6.4-7.1-29.9-15-31-73.9-6.6-94s10.4-6.5,14.5-6.5h115ZM202.3,154.5c7.7-7.7,12.6-23.4,13.3-34,1.1-16.7-5.9-48.6-26.3-50.3H60.8c-15.2,2.1-23.5,26.1-24.5,39.3-1.4,18.1,4,42.6,21.9,50.8l132,.5c4.4-.4,9.1-3.3,12.1-6.3ZM220.5,162.8c-1.2-3.2,1.2-33.8-.5-33.9-2.9,13-8.8,24.6-18.4,33.9h18.9ZM226.5,162.8c12.3-2.9,11.5-29.9,1.5-32.8s-.6,4.1-.7,5.5c-.1,4.9-.9,11-.9,15.9s1.3,7.3.1,11.4ZM182.7,164.8h-11v12h11v-12ZM91.1,165.8h-11v11h11v-11Z"/>
  </g>
  <rect class="st0" x="177.7" y="49.6" width="868.3" height="7"/>
</svg>