<?xml version="1.0" encoding="UTF-8"?>
<svg id="Layer_1" data-name="Layer 1" xmlns="http://www.w3.org/2000/svg" viewBox="0 0 127.56 64.21">
  <defs>
    <style>
      .cls-1 {
        fill: #fff;
      }
    </style>
  </defs>
  <path class="cls-1" d="M19.38,57.56s-6.06.53-5.22,4c.68,2.81,4.29,2.75,6.48,2.59l92.11-11.39-93.38,4.8Z"/>
  <path class="cls-1" d="M56.25,42.91c-2.07,2.34-5.15,1.78-4.72-.87.39-2.41,2.8-5.45,6.42-6.57.59-.18.99-.18,1.42-.06.48.13.78.31.36,1.21-.96,2.05-1.64,4.21-3.48,6.29M127.56,27.27c0-1.05-1.08-1.58-3.7-.88,0,0-3.52,1.23-13.06,1.36-.33,0-3.61.02-2.6,4.48.68,2.96-.39,5.81-2.03,7.71-2.51,2.9-7.3,1.84-6.97-1.52.48-4.81,3.83-6.3,6.55-6.78,2.62-.46,1.28-4.11-4.99-1.82,0,0-4.33,1.75-6.64,7.7-1.67,2.59-4.39,4.68-6.17,5.3,0,0-4.35,1.7-3.86-2.21,0,0,.18-3.81,3.99-6.26,0,0,.76-.45,1.07-.41.63.08.75.25.33,1.89-.39,1.49,2.39,3.5,3.98-1.17,0,0,1.47-5.16-2.37-5.27-.99-.03-3.82-.04-6.7,2.52-2.9,2.56-4.58,5.3-5.49,7.07-.43.83-.56,1.25-3.52,3.62-.59.43-1.16.77-1.68.94,0,0-4.35,1.7-3.87-2.21,0,0,.18-3.81,3.99-6.26,0,0,.76-.45,1.07-.41.63.08.75.25.33,1.89-.39,1.49,2.39,3.5,3.98-1.17,0,0,1.47-5.16-2.38-5.27-.99-.03-3.9-.05-6.79,2.5-2.91,2.56-4.64,5.6-5.41,7.08-.5.96-1.1,1.72-2.22,2.98-2.02,2.29-1.41-.68-.04-3.56,0,0,1.54-3.4,1.79-3.89,1.42-2.7-.95-2.36-1.72-3.07,0,0-3.32-1.49-7.91.89,0,0-7.43,3.6-8.35,10.82,0,0-5.69,3.16-2.75-2.42,0,0,3.21-5.9,12.6-16.55,2.09-2.37,1.73-6.45-2.5-4.14l-3.85,2.71s-4.4,3.01-2.81.02c0,0,3.18-4.19,3.55-4.8,1.38-2.24.46-5.67-4.39-3.06-4.84,2.61-8.4,6.14-8.4,6.14,0,0-3.64,3.32-1.11-1.41,0,0,3.94-7.77,4.82-10.02,0,0,4.32-9.8-.43-10.27-3.19-.32-5.25.15-10.82,2.51,0,0-22.45,10.13-29.28,27.86,0,0-3,7.35,2.34,8.76,1.84.49,4.04.61,6.33-.12,2.95-.94,5.88-1.89,10.58-6.01,0,0,1.84-1.88,1.34-2.73-.53-.89-2.57.73-2.57.73,0,0-4.18,3.06-8.97,3.77-4.45.66-6.92-3.68,4.02-15.93,0,0,3.11-4.56,15.24-11.86,0,0,11.39-6.59,5.84,5.74,0,0-6.35,15.08-15.87,27.35,0,0-5.43,6.87-4.94,10.04.21,1.34,2.51,2,3.81.25,0,0,11.55-15.68,13.49-17.86,1.94-2.18,4.54-4.44,5.81-5.81,1.58-1.7,6.51-4.6,1.58,1.09,0,0-10.06,13.08-13.1,19.2,0,0-1.68,2.55.37,3.56.7.35,2.56.05,4.77-3.08,0,0,6.78-10.18,9.97-13.51.8-.84,3.81-4.04,4.64-4.6,1.16-.77,3.38-1.92.11,2.01-2.42,2.9-5.07,6.36-6.48,8.93-3.37,6.15-.57,10.89,3.75,9.15,2.85-1.15,4.43-2.3,4.43-2.3,0,0,3.3,4.81,8.89-.09,0,0,.98,4.08,6.59-.9,1.24-1.1,1.39-1.37,2.94.43,0,0,4.1,4.13,9.86-.45,0,0,2.71-2.42,4.4-.28,0,0,3.65,4.56,9.86-.46l1.4-1.18s2.51-2.12,4.8-.02v-.02c.34.5,6.83,5.79,13.3-.97,2.78-2.9,3.08-7.29,2.09-10.8,0,0-.54-3.12,1.99-2.77,0,0,7.98,1.32,12.4-.35,0,0,1.71-.7,1.71-2.11"/>
</svg>