<?xml version="1.0" encoding="UTF-8"?>
<svg id="Vrstva_1" xmlns="http://www.w3.org/2000/svg" version="1.1" viewBox="0 0 340.2 93.5">
  <!-- Generator: Adobe Illustrator 29.8.2, SVG Export Plug-In . SVG Version: 2.1.1 Build 3)  -->
  <defs>
    <style>
      .st0 {
        fill: #fff;
      }
    </style>
  </defs>
  <rect class="st0" x="34.7" y="34.7" width="24.1" height="24.1"/>
  <path class="st0" d="M81.5,33V11.6h-21.1v16.7h-27.4V11.6H11.2v21.5h17.1v27.4H11.2v21.5h21.9v-16.6h27.4v16.6h21.1v-21.5h-16.3v-27.4h16.3ZM60.4,60.4h-27.4v-27.4h27.4v27.4Z"/>
  <rect class="st0" x="34.7" y="34.7" width="24.1" height="24.1"/>
  <g>
    <path class="st0" d="M104.9,11.6h9.1l9,18.2h0V11.6c-.1,0,6.4,0,6.4,0v26.7h-8.8l-9.3-18.3h0l.2,18.3h-6.5V11.6h0Z"/>
    <path class="st0" d="M134.4,11.6h18.8v5.1h-11.7v5.5h11.1v5.1h-11.1v6.1h12.1v5.1h-19.3V11.6Z"/>
    <path class="st0" d="M157.8,11.6h11.2l5.7,17.8h0l5.9-17.8h10.8v26.7h-7v-20.5c.1,0,0,0,0,0l-6.8,20.5h-6.5l-6.5-20.5h0l.2,20.5h-7V11.6h0Z"/>
    <path class="st0" d="M208.7,11.2c-8.8,0-13.4,5.2-13.4,13.8s4.7,13.8,13.4,13.8,13.4-5.3,13.4-13.8-4.6-13.8-13.4-13.8ZM208.7,33.6c-4.3,0-6.1-4.1-6.1-8.5s1.7-8.5,6.1-8.5,6,3.9,6,8.5-1.7,8.5-6,8.5Z"/>
    <path class="st0" d="M248.4,37.8c-2,.5-4.3,1.1-7.9,1.1-7.1,0-15.4-3.6-15.4-13.7s6.5-13.9,15.3-13.9,5.4.6,7.9,1.4l-.6,5.8c-2.3-1.3-4.5-1.9-7-1.9-5.1,0-8.3,3.7-8.3,8.7s3.7,8.4,8.9,8.4,4.7-.6,6.7-1.4l.3,5.6Z"/>
    <path class="st0" d="M251.8,11.6h9.1l9,18.2h0V11.6c-.1,0,6.4,0,6.4,0v26.7h-8.8l-9.3-18.3h0l.2,18.3h-6.5V11.6h0Z"/>
    <path class="st0" d="M281.8,11.6h7.1v26.7h-7.1V11.6Z"/>
    <path class="st0" d="M316.6,37.8c-2,.5-4.3,1.1-7.9,1.1-7.1,0-15.4-3.6-15.4-13.7s6.5-13.9,15.3-13.9,5.4.6,7.9,1.4l-.6,5.8c-2.3-1.3-4.5-1.9-7-1.9-5.1,0-8.3,3.7-8.3,8.7s3.7,8.4,8.9,8.4,4.7-.6,6.7-1.4l.3,5.6Z"/>
    <path class="st0" d="M319.6,11.6h18.8v5.1h-11.7v5.5h11.1v5.1h-11.1v6.1h12.1v5.1h-19.3V11.6Z"/>
  </g>
  <g>
    <path class="st0" d="M109.5,48.1h-4.6v14.3h3.8v-5h1.5c3.6,0,5.7-1.7,5.7-4.6s-2-4.7-6.4-4.7ZM109.7,54.7h-1v-3.9h1c1.3,0,2.4.5,2.4,1.9s-1,2-2.4,2Z"/>
    <path class="st0" d="M125.1,48.1h-4.7l-5.4,14.3h3.9l1.1-3.1h5.4l1.1,3.1h4.2l-5.5-14.3ZM120.9,56.6l1.8-5.6h0l1.7,5.6h-3.6Z"/>
    <path class="st0" d="M142.8,58.5c-.7-1.7-.8-2.8-2-3.2h0c1.8-.5,2.8-1.7,2.8-3.6s-2.1-3.6-4.6-3.6h-6.8v14.3h3.8v-5.7h.8c1.4,0,1.9.6,2.7,3.1l.8,2.6h4l-1.4-3.9ZM136.9,54h-1v-3.2h1c1.5,0,2.8.2,2.8,1.6s-1.6,1.7-2.8,1.7Z"/>
    <path class="st0" d="M151,48.1h-5.2v14.3h5.2c4.9,0,8.5-1.9,8.5-7.2s-3.5-7.1-8.5-7.1ZM151.1,59.6h-1.5v-8.7h1.5c2.8,0,4.5,1.5,4.5,4.3s-1.6,4.3-4.5,4.3Z"/>
    <path class="st0" d="M174.2,57c0,3.9-2.5,5.7-6.3,5.7s-6.3-1.8-6.3-5.7v-8.9h3.8v8.2c0,1.9.5,3.5,2.5,3.5s2.5-1.6,2.5-3.5v-8.2h3.8v8.9h0Z"/>
    <path class="st0" d="M185.2,55.1h0c1.6-.6,2.5-1.6,2.5-3.4s-2-3.6-4.7-3.6h-6.6v14.3h6c2.6,0,5.6-.7,5.6-4.1s-1-2.8-2.9-3.2ZM180.3,50.8h1.1c1.3,0,2.5.1,2.5,1.4s-1.3,1.5-2.5,1.5h-1.1v-3ZM181.5,59.7h-1.1v-3.4h1.2c1.3,0,2.8.1,2.8,1.7s-1.5,1.7-2.9,1.7Z"/>
    <path class="st0" d="M190.5,48.1h3.8v14.3h-3.8v-14.3Z"/>
    <path class="st0" d="M209.1,62.1c-1.1.3-2.3.6-4.2.6-3.8,0-8.2-1.9-8.2-7.3s3.5-7.5,8.2-7.5,2.9.3,4.2.7l-.3,3.1c-1.2-.7-2.4-1-3.7-1-2.7,0-4.5,2-4.5,4.6s2,4.5,4.8,4.5,2.5-.3,3.6-.7l.2,3Z"/>
    <path class="st0" d="M210.9,48.1h3.8v5.8h0l4.3-5.8h4.6l-5.3,6.7,5.7,7.7h-4.9l-4.5-6.5h0v6.5h-3.8v-14.3h0Z"/>
    <path class="st0" d="M229.4,59.7v-3.2h5.9v-2.7h-5.9v-3h6.3v-2.7h-10.1v14.3h10.3v-2.7h-6.5ZM230.5,45l-1.4,2.2h2.8l2.7-2.2h-4.1Z"/>
    <path class="st0" d="M238.2,48.1h3.8v5.5h4.5v-5.5h3.8v14.3h-3.8v-6.1h-4.5v6.1h-3.8v-14.3Z"/>
    <path class="st0" d="M259.7,47.8c-4.7,0-7.2,2.8-7.2,7.4s2.5,7.4,7.2,7.4,7.2-2.8,7.2-7.4-2.5-7.4-7.2-7.4ZM259.7,59.8c-2.3,0-3.2-2.2-3.2-4.6s.9-4.6,3.2-4.6,3.2,2.1,3.2,4.6-.9,4.6-3.2,4.6Z"/>
    <path class="st0" d="M275.3,48.1h3.8v5.8h0l4.3-5.8h4.6l-5.3,6.7,5.7,7.7h-4.9l-4.5-6.5h0v6.5h-3.8v-14.3h0Z"/>
    <path class="st0" d="M300.8,58.5c-.7-1.7-.8-2.8-2-3.2h0c1.8-.5,2.8-1.7,2.8-3.6s-2.1-3.6-4.6-3.6h-6.8v14.3h3.8v-5.7h.8c1.4,0,1.9.6,2.7,3.1l.8,2.6h4l-1.4-3.9ZM294.9,54h-1v-3.2h1c1.5,0,2.8.2,2.8,1.6s-1.6,1.7-2.8,1.7Z"/>
    <path class="st0" d="M312.8,48.1h-4.7l-5.4,14.3h3.9l1.1-3.1h5.4l1.1,3.1h4.2l-5.5-14.3ZM308.5,56.6l1.9-5.6h0l1.7,5.6h-3.6Z"/>
    <path class="st0" d="M318.8,59.1c.5.2,1.1.3,1.7.3,1.1,0,1.9-.8,1.9-3.1v-8.2h3.8v9.4c0,3.1-1.3,5.2-5.1,5.2s-1.7-.2-2.4-.4v-3.2Z"/>
    <path class="st0" d="M328.8,48.1h10.1v2.7h-6.3v3h5.9v2.7h-5.9v3.2h6.5v2.7h-10.3v-14.3h0Z"/>
  </g>
  <rect class="st0" x="34.7" y="34.7" width="24.1" height="24.1"/>
  <rect class="st0" x="34.7" y="2.6" width="24.1" height="24.1"/>
  <rect class="st0" x="34.7" y="66.9" width="24.1" height="24.1"/>
  <rect class="st0" x="2.6" y="34.7" width="24.1" height="24.1"/>
  <rect class="st0" x="66.9" y="34.7" width="24.1" height="24.1"/>
  <g>
    <path class="st0" d="M110.3,71.1c-3.5,0-5.4,2.1-5.4,5.5s1.9,5.5,5.4,5.5,5.4-2.1,5.4-5.5-1.8-5.5-5.4-5.5ZM110.3,80.1c-1.7,0-2.4-1.7-2.4-3.4s.7-3.4,2.4-3.4,2.4,1.6,2.4,3.4-.7,3.4-2.4,3.4Z"/>
    <path class="st0" d="M125,79.1c-.5-1.3-.6-2.1-1.5-2.4h0c1.4-.4,2.1-1.3,2.1-2.7s-1.6-2.7-3.5-2.7h-5.1v10.7h2.9v-4.2h.6c1.1,0,1.4.5,2,2.3l.6,1.9h3l-1.1-2.9ZM120.6,75.7h-.8v-2.4h.8c1.1,0,2.1.2,2.1,1.2s-1.2,1.2-2.1,1.2Z"/>
    <path class="st0" d="M127.1,71.3h2.9v8.6h4.4v2.1h-7.3v-10.7Z"/>
    <path class="st0" d="M135.5,71.3h2.9v10.7h-2.9v-10.7Z"/>
    <path class="st0" d="M149.2,81.8c-.8.2-1.7.4-3.2.4-2.9,0-6.2-1.4-6.2-5.5s2.6-5.6,6.1-5.6,2.1.2,3.2.6l-.2,2.3c-.9-.5-1.8-.8-2.8-.8-2,0-3.3,1.5-3.3,3.5s1.5,3.4,3.6,3.4,1.9-.2,2.7-.6v2.2Z"/>
    <path class="st0" d="M150.3,71.3h2.9v4.4h0l3.2-4.4h3.4l-4,5,4.3,5.7h-3.6l-3.3-4.9h0v4.9h-2.9v-10.7h0Z"/>
    <path class="st0" d="M166.1,71.1c-3.5,0-5.4,2.1-5.4,5.5s1.9,5.5,5.4,5.5,5.4-2.1,5.4-5.5-1.8-5.5-5.4-5.5ZM166.1,80.1c-1.7,0-2.4-1.7-2.4-3.4s.7-3.4,2.4-3.4,2.4,1.6,2.4,3.4-.7,3.4-2.4,3.4Z"/>
    <path class="st0" d="M179.2,71.3v6.2c0,1.4-.4,2.6-1.9,2.6s-1.8-1.2-1.8-2.6v-6.2h-2.9v6.7c0,2.9,1.9,4.2,4.7,4.2s4.7-1.3,4.7-4.2v-6.7h-2.8ZM177.2,69l-1,1.7h2.1l2-1.7h-3.1Z"/>
    <path class="st0" d="M183.7,79.4c.7.4,1.8.7,2.9.7s1.8-.2,1.8-1c0-2-5.1-.7-5.1-4.6s2.5-3.3,4.7-3.3,2,.2,2.8.4l-.2,2.2c-.7-.3-1.6-.5-2.4-.5s-1.9,0-1.9,1c0,1.7,5.1.6,5.1,4.4s-2.3,3.5-4.7,3.5-2.2-.2-3.2-.5l.2-2.4Z"/>
    <path class="st0" d="M194.7,73.4h-2.6v-2.1h8.1v2.1h-2.6v8.6h-2.9v-8.6h0Z"/>
    <path class="st0" d="M201,71.3h7.6v2h-4.7v2.2h4.4v2h-4.4v2.4h4.9v2h-7.7v-10.7h0Z"/>
    <path class="st0" d="M219.2,81.8c-.8.2-1.7.4-3.2.4-2.9,0-6.2-1.4-6.2-5.5s2.6-5.6,6.1-5.6,2.1.2,3.2.6l-.2,2.3c-.9-.5-1.8-.8-2.8-.8-2,0-3.3,1.5-3.3,3.5s1.5,3.4,3.6,3.4,1.9-.2,2.7-.6v2.2Z"/>
    <path class="st0" d="M220.3,71.3h2.9v4.4h0l3.2-4.4h3.4l-4,5,4.3,5.7h-3.6l-3.3-4.9h0v4.9h-2.9v-10.7h0Z"/>
    <path class="st0" d="M237.8,71.3h-3.5l-4.1,10.7h2.9l.8-2.3h4l.8,2.3h3.1l-4.1-10.7ZM234.7,77.7l1.4-4.2h0l1.3,4.2h-2.7ZM235.9,69l-1,1.7h2.1l2-1.7h-3.1Z"/>
    <path class="st0" d="M247.4,71.3h3.6l3.6,7.3h0v-7.3s2.6,0,2.6,0v10.7h-3.5l-3.7-7.3h0v7.3c0,0-2.5,0-2.5,0v-10.7h0Z"/>
    <path class="st0" d="M258.9,71.3h7.6v2h-4.7v2.2h4.4v2h-4.4v2.4h4.9v2h-7.7v-10.7Z"/>
    <path class="st0" d="M268.1,71.3h4.5l2.3,7.1h0l2.4-7.1h4.3v10.7h-2.8v-8.2s0,0,0,0l-2.7,8.2h-2.6l-2.6-8.2h0v8.2c0,0-2.7,0-2.7,0v-10.7h0Z"/>
    <path class="st0" d="M288.3,71.1c-3.5,0-5.4,2.1-5.4,5.5s1.9,5.5,5.4,5.5,5.4-2.1,5.4-5.5-1.8-5.5-5.4-5.5ZM288.3,80.1c-1.7,0-2.4-1.7-2.4-3.4s.7-3.4,2.4-3.4,2.4,1.6,2.4,3.4-.7,3.4-2.4,3.4Z"/>
    <path class="st0" d="M303.9,81.8c-.8.2-1.7.4-3.2.4-2.9,0-6.2-1.4-6.2-5.5s2.6-5.6,6.1-5.6,2.1.2,3.2.6l-.2,2.3c-.9-.5-1.8-.8-2.8-.8-2,0-3.3,1.5-3.3,3.5s1.5,3.4,3.6,3.4,1.9-.2,2.7-.6v2.2Z"/>
    <path class="st0" d="M305,71.3h3.6l3.6,7.3h0v-7.3s2.6,0,2.6,0v10.7h-3.5l-3.7-7.3h0v7.3c0,0-2.5,0-2.5,0v-10.7h0Z"/>
    <path class="st0" d="M316.8,71.3h2.9v10.7h-2.9v-10.7Z"/>
    <path class="st0" d="M330.5,81.8c-.8.2-1.7.4-3.2.4-2.9,0-6.2-1.4-6.2-5.5s2.6-5.6,6.1-5.6,2.1.2,3.2.6l-.2,2.3c-.9-.5-1.8-.8-2.8-.8-2,0-3.3,1.5-3.3,3.5s1.5,3.4,3.6,3.4,1.9-.2,2.7-.6v2.2Z"/>
    <path class="st0" d="M331.5,71.3h7.6v2h-4.7v2.2h4.4v2h-4.4v2.4h4.9v2h-7.7v-10.7Z"/>
  </g>
</svg>