<?xml version="1.0" encoding="UTF-8"?>
<svg id="Layer_2" data-name="Layer 2" xmlns="http://www.w3.org/2000/svg" viewBox="0 0 375.62 95.83">
  <defs>
    <style>
      .cls-1 {
        fill: #fff;
      }
    </style>
  </defs>
  <g id="Layer_1-2" data-name="Layer 1">
    <g>
      <path class="cls-1" d="M251.51,0c-1.22,7.32-2.45,14.63-3.79,22.67h-16.56c-3.39,24.19-6.68,47.72-10.06,71.86h-25.1c2.92-23.9,5.77-47.25,8.72-71.37l-16.94-.81c.58-7.73,1.13-15.05,1.68-22.36h62.06Z"/>
      <path class="cls-1" d="M40.52,0c17.91,21.44,15.5,40.73-6.71,57.66l18.99,36.86H20.66c-6.81-14-13.62-28-20.66-42.49C28.98,38.51,25.24,20.2,7.94,0h32.58Z"/>
      <path class="cls-1" d="M344.59,95.83c-7.2-14.41-14.39-28.82-21.99-44.03,29.29-13.22,25.37-31.58,8.03-51.8h31.03c15.71,21.28,15.6,40.83-7.74,57.36,7.64,13.01,14.67,24.97,21.7,36.93l-31.03,1.55Z"/>
      <path class="cls-1" d="M104.13,0c-4.79,31.34-9.57,62.68-14.43,94.47h-25.46L76.2,0h27.93Z"/>
      <path class="cls-1" d="M249.96,95.83c.96-7.55,1.91-15.11,2.9-22.86h55.42c-1.4,7.96-2.71,15.41-4.02,22.86h-54.3Z"/>
      <path class="cls-1" d="M180.14,0c-.76,7.34-1.51,14.69-2.32,22.54h-54.74c.93-7.56,1.84-15.05,2.76-22.54h54.3Z"/>
      <path class="cls-1" d="M316.67,0c-.81,7.57-1.62,15.14-2.45,22.84h-54.73c.99-7.86,1.94-15.35,2.88-22.84h54.3Z"/>
      <path class="cls-1" d="M113.91,94.29l2.51-21.29h55.04c-.95,7.2-1.84,13.96-2.81,21.29h-54.74Z"/>
      <path class="cls-1" d="M118.44,58.66c1.13-7.77,2.08-14.34,3.11-21.41h45.71c-.88,7.43-1.7,14.4-2.53,21.41h-46.29Z"/>
      <path class="cls-1" d="M254.94,58.69c1.04-7.25,2.02-14.06,3.07-21.41h45.73c-.87,7.34-1.7,14.31-2.54,21.41h-46.26Z"/>
    </g>
  </g>
</svg>