<?xml version="1.0" encoding="UTF-8"?>
<svg id="Layer_2" data-name="Layer 2" xmlns="http://www.w3.org/2000/svg" viewBox="0 0 635.42 157.34">
  <defs>
    <style>
      .cls-1 {
        fill: #fff;
      }
    </style>
  </defs>
  <g id="BW">
    <path class="cls-1" d="M635.42,115.54l-37.43-76.36h-17.4l-36.64,76.36h19.12l7.79-17.17h35.72l8.13,17.17h20.72ZM600.39,84.86h-23.24l11.44-25.41,11.8,25.41h0ZM550.6,64.94c.38-9.23-4.38-17.91-12.36-22.55-4.59-2.41-9.73-3.21-20.38-3.21h-42.01v76.36h17.39v-24.27h26.1c4.95.22,9.91-.4,14.65-1.83,10.28-3.67,17-13.59,16.6-24.5M531.14,65.17c.51,4.68-2.15,9.13-6.52,10.88-3.25,1.06-6.67,1.45-10.08,1.15h-21.29v-23.47h21.64c3.11-.23,6.25.04,9.27.81,4.6,1.38,7.55,5.87,6.98,10.64M405.01,59.24c0-5.15,5.72-7.9,16.71-7.9s16.14,2.97,17.17,10.3h20.03c-.07-5.54-2.28-10.83-6.18-14.76-6.18-6.64-16.03-9.73-30.91-9.73-23.36,0-36.52,8.82-36.52,24.5-.27,6.36,2.87,12.38,8.24,15.8,5.15,3.09,7.56,3.78,24.85,6.41,19.12,2.98,22.78,4.7,22.78,10.19,0,6.18-6.07,9.73-16.6,9.73-12.94,0-19.12-4.24-19.92-13.85h-20.49c1.14,18.66,13.97,27.93,38.47,27.93s39.27-9.5,39.27-25.99c.25-6.33-2.73-12.36-7.9-16.02-4.7-3.09-9.62-4.35-24.73-6.87-6.33-.75-12.61-1.94-18.77-3.55-3.78-1.03-5.49-2.97-5.49-6.18M316.23,59.24c0-5.15,5.72-7.9,16.71-7.9s16.15,2.97,17.17,10.3h20.04c-.07-5.54-2.29-10.83-6.18-14.76-6.18-6.64-16.03-9.73-30.91-9.73-23.35,0-36.52,8.82-36.52,24.5-.28,6.36,2.87,12.39,8.24,15.8,5.15,3.09,7.55,3.78,24.84,6.41,19.12,2.98,22.78,4.7,22.78,10.19,0,6.18-6.07,9.73-16.6,9.73-12.93,0-19.12-4.24-19.92-13.85h-20.49c1.15,18.66,13.96,27.93,38.46,27.93s39.27-9.5,39.27-25.99c.25-6.33-2.72-12.37-7.9-16.02-4.69-3.09-9.62-4.35-24.73-6.87-6.33-.75-12.61-1.94-18.78-3.55-3.78-1.03-5.49-2.97-5.49-6.18M274.99,106.18c4.69-5.49,6.07-10.42,6.07-22.09v-44.76h-17.52v43.27c.2,3.76-.31,7.53-1.49,11.11-2.63,6.75-8.7,10.07-18.31,10.07-8.36,0-13.85-2.4-17.06-7.55-2.21-4.18-3.16-8.91-2.75-13.63v-43.27h-17.52v43.96c0,10.07.69,14.2,3.09,18.66,5.5,10.19,17.86,15.91,34.23,15.91,13.97,0,24.84-4.01,31.25-11.68M157.47,80.66C158.42,37.08,123.87.97,80.29.02c-22.13-.49-43.44,8.34-58.75,24.33,3.49-2.55,7.29-4.63,11.33-6.18,26.75-11.15,61.89-1.7,85.7,25.32,27.92,31.67,29.74,75.56,4.97,99.92,20.69-14.29,33.3-37.61,33.92-62.75M28.05,44.95c-7.78,2.59-14.84,6.96-20.62,12.77C3.11,62.53.57,68.67.22,75.12c-.54,7.08-.06,14.2,1.44,21.14l.02.1c.55-1.52,1.25-2.97,2.11-4.34,11.99-19.72,42.8-25.13,70.98-11.8,14.64,6.57,26.53,18.04,33.63,32.42,1.68,3.43,2.86,7.08,3.5,10.84,1.55,7.55.64,15.4-2.59,22.39-1.27,2.53-2.92,4.86-4.9,6.88-.19.2-.39.39-.59.59.23-.13.45-.27.66-.4,2.26-1.35,4.36-2.94,6.27-4.74,3.97-3.64,7.25-7.97,9.68-12.78,2.03-3.68,3.44-7.67,4.18-11.8,6.72-28.65-8.78-60.31-39.36-75.1-17.79-8.91-38.44-10.21-57.2-3.58M50.62,143.78c4.13,8.83,13.27,14.2,22.99,13.51-1.38-.65-2.66-1.49-3.82-2.48-8.27-7.06-7.37-21.68,2-32.66,3.14-3.96,7.32-6.97,12.08-8.69-11.23-6.57-25.67-2.79-32.24,8.45-3.91,6.68-4.28,14.86-1,21.87"/>
  </g>
</svg>