<?xml version="1.0" encoding="UTF-8"?>
<svg id="SYMBOL_COLOR" data-name="SYMBOL COLOR" xmlns="http://www.w3.org/2000/svg" viewBox="0 0 300 300">
  <defs>
    <style>
      .cls-1 {
        fill: #0ad;
      }
    </style>
  </defs>
  <path class="cls-1" d="M200.56,210.58c-2.99,11.46-8.88,22.11-17.03,30.99,3.55-8.88,4.84-18.24,3.79-27.52-2.1-18.72-13.96-35.67-31.87-45.67l3.07-6.86c6.46,1.86,13.07,2.91,19.77,3.07,6.21.08,12.35-.4,18.32-1.69,6.62,15.17,7.99,32.04,3.95,47.69Z"/>
  <path class="cls-1" d="M238.32,189.6l-23.81-18.8c-3.15-12.43-9.04-24.21-17.19-34.13l3.15-1.45c12.1,7.1,27.6,20.01,34.78,41.32,1.45,4.2,2.42,8.55,3.07,13.07Z"/>
  <path class="cls-1" d="M192.73,115.28c0-.81-.08-1.53-.16-2.34-6.7-.4-13.31-.08-19.69,1.05-5.33.97-10.65,2.42-15.74,4.36l-1.86.73-5.16-13.48,1.86-.73c5.97-2.26,12.18-3.95,18.48-5.08,6.7-1.13,13.72-1.61,20.66-1.37-.16-1.69-.32-3.47-.56-5.08l-.32-2.34h13.15c-.32-7.42-2.9-34.38-23.24-51.64-17.27-14.69-40.02-15.41-46.4-15.41-17.11.24-31.79,5.25-43.49,14.85-10.09,8.23-17.19,19.21-21.22,32.6l-2.26,7.5c-1.29,4.92-2.26,10.01-2.83,15.09l16.62-.56,5.89,27.27,10.41-3.31,2.34,6.54c8.96,24.77,28.08,34.21,40.02,37.77v-.08l2.18.73c.32.08.65.16.89.24l8.47-19.12,6.38,2.42c6.94,2.66,14.12,4.12,21.46,4.28,2.66.16,5.41,0,8.23-.24-.08-.08-.08-.16-.16-.32-1.78-3.79-4.03-7.42-6.78-10.73l-5.97-7.18,19.2-8.96c-.16-2.42-.24-4.92-.4-7.42ZM124.38,94.79h-14.36v-34.7h14.36v34.7ZM144.55,60.09h30.18v14.36h-30.18v-14.36Z"/>
  <path class="cls-1" d="M151.9,259c.24-.56.4-1.13.65-1.69,4.68-12.99,2.74-27.27-5.73-42.44-10.41-18.64-25.9-25.34-40.99-31.87-12.91-5.57-25.1-10.89-34.54-24.29-7.83-12.18-10.89-29.05-9.12-50.19l6.86-.24,6.7,31.07,12.59-4.03c12.67,27.52,36.15,37.44,49.06,40.83,19.29,6.13,33.65,22.03,35.59,39.54,1.94,16.54-6.21,32.92-21.06,43.33Z"/>
  <path class="cls-1" d="M138.9,252.55c-4.34,12.1-16.66,18.03-21.46,19.86-4.19,1.22-8.37,2.43-12.56,3.65,3.43-9.82,5.71-21,6.39-32.87.69-15.29-1.82-30.36-7.3-45.2,12.1,5.25,23.06,10.96,30.36,23.74,6.16,11.41,7.76,21.92,4.57,30.82Z"/>
</svg>